<?xml version="1.0" encoding="utf-8"?>
<!-- Generator: Adobe Illustrator 23.0.4, SVG Export Plug-In . SVG Version: 6.00 Build 0)  -->
<svg version="1.1"
	 id="Layer_1" xmlns:cc="http://creativecommons.org/ns#" xmlns:dc="http://purl.org/dc/elements/1.1/" xmlns:inkscape="http://www.inkscape.org/namespaces/inkscape" xmlns:rdf="http://www.w3.org/1999/02/22-rdf-syntax-ns#" xmlns:sodipodi="http://sodipodi.sourceforge.net/DTD/sodipodi-0.dtd" xmlns:svg="http://www.w3.org/2000/svg"
	 xmlns="http://www.w3.org/2000/svg" xmlns:xlink="http://www.w3.org/1999/xlink" x="0px" y="0px" viewBox="0 0 100 100"
	 style="enable-background:new 0 0 100 100;" xml:space="preserve">
<style type="text/css">
	.st0{fill:#333333;}
</style>
<g transform="translate(0,-952.36218)">
	<path class="st0" d="M14,968.4c-3.3,0-6,2.7-6,6c0,3.3,2.7,6,6,6h72c3.3,0,6-2.7,6-6c0-3.3-2.7-6-6-6H14z M14,996.4
		c-3.3,0-6,2.7-6,6c0,3.3,2.7,6,6,6h72c3.3,0,6-2.7,6-6c0-3.3-2.7-6-6-6H14z M14,1024.4c-3.3,0-6,2.7-6,6c0,3.3,2.7,6,6,6h72
		c3.3,0,6-2.7,6-6c0-3.3-2.7-6-6-6H14z"/>
</g>
</svg>
