<?xml version="1.0" encoding="utf-8"?>
<!-- Generator: Adobe Illustrator 23.0.4, SVG Export Plug-In . SVG Version: 6.00 Build 0)  -->
<svg version="1.1" id="Layer_1" xmlns="http://www.w3.org/2000/svg" xmlns:xlink="http://www.w3.org/1999/xlink" x="0px" y="0px"
	 viewBox="0 0 300 300" style="enable-background:new 0 0 300 300;" xml:space="preserve">
<g transform="translate(0.000000,300.000000) scale(0.100000,-0.100000)">
	<path d="M1954,2556c-384-88-523-554-248-833c110-111,271-168,412-146c187,30,336,146,403,312c34,85,38,244,9,331
		c-37,112-122,221-215,276C2209,2557,2066,2581,1954,2556z"/>
	<path d="M433,1228c4-116,7-341,7-500V440h495h495v250v250h-250H930v250v250H678H427L433,1228z"/>
	<path d="M1560,935V440h497h498l-495,495c-272,272-496,495-497,495C1561,1430,1560,1207,1560,935z"/>
	<polygon points="427,1571.2 427,2566.9 928.5,2070.2 1427,2561.2 1430,1571.2 	"/>
</g>
</svg>
